<svg width="30" height="30" viewBox="0 0 30 30" fill="none" xmlns="http://www.w3.org/2000/svg">
<path d="M19.4249 14.1129L12.3499 7.05041C12.2337 6.93325 12.0955 6.84026 11.9431 6.7768C11.7908 6.71334 11.6274 6.68066 11.4624 6.68066C11.2974 6.68066 11.134 6.71334 10.9817 6.7768C10.8294 6.84026 10.6911 6.93325 10.5749 7.05041C10.3421 7.28461 10.2114 7.60143 10.2114 7.93166C10.2114 8.26189 10.3421 8.57871 10.5749 8.81291L16.7624 15.0629L10.5749 21.2504C10.3421 21.4846 10.2114 21.8014 10.2114 22.1317C10.2114 22.4619 10.3421 22.7787 10.5749 23.0129C10.6907 23.131 10.8287 23.225 10.9811 23.2894C11.1334 23.3537 11.297 23.3872 11.4624 23.3879C11.6278 23.3872 11.7914 23.3537 11.9437 23.2894C12.0961 23.225 12.2341 23.131 12.3499 23.0129L19.4249 15.9504C19.5518 15.8334 19.6531 15.6913 19.7223 15.5332C19.7916 15.375 19.8273 15.2043 19.8273 15.0317C19.8273 14.859 19.7916 14.6883 19.7223 14.5302C19.6531 14.372 19.5518 14.23 19.4249 14.1129Z" fill="#999999"/>
</svg>
